<svg height="512" viewBox="0 0 512 512" width="512" xmlns="http://www.w3.org/2000/svg"><g><g fill="#57a4ff"><path d="m329 48h32v32h-32z"/><path d="m120 168h272v96h-272z"/><path d="m120 296h272v32h-272z"/></g><g fill="#004fac"><path d="m416 8h-320a8 8 0 0 0 -8 8v480a8 8 0 0 0 8 8h320a8 8 0 0 0 8-8v-480a8 8 0 0 0 -8-8zm-8 480h-304v-464h304z"/><path d="m384 40h-80a8 8 0 0 0 -8 8v80a8 8 0 0 0 8 8h80a8 8 0 0 0 8-8v-80a8 8 0 0 0 -8-8zm-48 16h16v16h-16zm40 64h-64v-64h8v24a8 8 0 0 0 8 8h32a8 8 0 0 0 8-8v-24h8z"/><path d="m120 256a8 8 0 0 0 0 16h272a8 8 0 0 0 0-16h-192v-80h192a8 8 0 0 0 0-16h-272a8 8 0 0 0 0 16h64v80z"/><path d="m120 304h272a8 8 0 0 0 0-16h-272a8 8 0 0 0 0 16z"/><path d="m120 336h272a8 8 0 0 0 0-16h-272a8 8 0 0 0 0 16z"/><path d="m128 64h56a8 8 0 0 0 0-16h-56a8 8 0 0 0 0 16z"/><path d="m128 88h24a8 8 0 0 0 0-16h-24a8 8 0 0 0 0 16z"/><path d="m224 352h-96a8 8 0 0 0 0 16h96a8 8 0 0 0 0-16z"/><path d="m160 376h-32a8 8 0 0 0 0 16h32a8 8 0 0 0 0-16z"/><path d="m192 376h-8a8 8 0 0 0 0 16h8a8 8 0 0 0 0-16z"/><path d="m384 432h-96a8 8 0 0 0 0 16h96a8 8 0 0 0 0-16z"/><path d="m352 456h-32a8 8 0 0 0 0 16h32a8 8 0 0 0 0-16z"/><path d="m384 456h-8a8 8 0 0 0 0 16h8a8 8 0 0 0 0-16z"/></g></g></svg>