<?xml version="1.0" encoding="iso-8859-1"?>
<!-- Generator: Adobe Illustrator 19.0.0, SVG Export Plug-In . SVG Version: 6.00 Build 0)  -->
<svg version="1.1" id="Capa_1" xmlns="http://www.w3.org/2000/svg" xmlns:xlink="http://www.w3.org/1999/xlink" x="0px" y="0px"
	 viewBox="0 0 511.999 511.999" style="enable-background:new 0 0 511.999 511.999;" xml:space="preserve">
<path style="fill:#E4EAF8;" d="M466.543,224.642l-26.172-8.724l-41.85-97.651c-3.789-8.842-12.484-14.575-22.104-14.575H39.565
	c-8.854,0-16.032,7.178-16.032,16.032v224.452h464.935v-89.115C488.468,241.26,479.636,229.007,466.543,224.642z"/>
<path style="fill:#87DCFF;" d="M466.543,224.642l-26.172-8.724l-41.85-97.651c-3.789-8.842-12.484-14.575-22.104-14.575H39.565
	c-8.854,0-16.032,7.178-16.032,16.032v160.323h464.935v-24.986C488.468,241.26,479.636,229.007,466.543,224.642z"/>
<rect x="23.532" y="253.999" style="fill:#00C3FF;" width="448.9" height="26.05"/>
<path style="fill:#D5DCED;" d="M55.597,272.031v8.016H23.532v64.129h464.935v-24.048H103.693
	C77.13,320.128,55.597,298.594,55.597,272.031z"/>
<circle style="fill:#5B5D6E;" cx="119.73" cy="360.209" r="48.1"/>
<circle style="fill:#959CB5;" cx="119.73" cy="360.209" r="16.03"/>
<circle style="fill:#5B5D6E;" cx="408.31" cy="360.209" r="48.1"/>
<circle style="fill:#959CB5;" cx="408.31" cy="360.209" r="16.03"/>
<path style="fill:#AFB9D2;" d="M31.548,344.176H15.516c-4.427,0-8.016-3.589-8.016-8.016v-16.032c0-4.427,3.589-8.016,8.016-8.016
	h16.032c4.427,0,8.016,3.589,8.016,8.016v16.032C39.565,340.587,35.976,344.176,31.548,344.176z"/>
<path style="fill:#00AAF0;" d="M272.032,135.757v56.113c0,13.282,10.767,24.048,24.048,24.048h80.161l-32.273-75.303
	c-1.263-2.947-4.161-4.858-7.368-4.858H272.032z"/>
<path style="fill:#AFB9D2;" d="M496.484,344.176h-16.032c-4.427,0-8.016-3.589-8.016-8.016v-16.032c0-4.427,3.589-8.016,8.016-8.016
	h16.032c4.427,0,8.016,3.589,8.016,8.016v16.032C504.5,340.587,500.911,344.176,496.484,344.176z"/>
<path style="fill:#00AAF0;" d="M373.952,135.757l32.272,75.303c1.263,2.947,4.161,4.858,7.368,4.858h26.779l-34.355-80.161H373.952z
	"/>
<path style="fill:#A0EBFF;" d="M406.016,135.757l-7.496-17.489c-3.789-8.842-12.484-14.575-22.104-14.575H39.565
	c-8.854,0-16.032,7.178-16.032,16.032v16.032H406.016z"/>
<path style="fill:#FFF082;" d="M487.581,247.983h-31.178v16.032c0,8.854,7.178,16.032,16.032,16.032h16.032v-24.986
	C488.468,252.632,488.104,250.281,487.581,247.983z"/>
<rect x="23.532" y="247.979" style="fill:#00AAF0;" width="32.06" height="32.06"/>
<path style="fill:#00C3FF;" d="M55.597,253.999H23.532v-102.21l0,0c17.709,0,32.064,14.356,32.064,32.064L55.597,253.999
	L55.597,253.999z"/>
<path d="M119.726,383.741c12.976,0,23.533-10.557,23.533-23.532c0-4.143-3.358-7.5-7.5-7.5s-7.5,3.357-7.5,7.5
	c0,4.705-3.828,8.532-8.533,8.532c-4.705,0-8.532-3.827-8.532-8.532c0-3.036,1.635-5.869,4.268-7.394
	c3.585-2.075,4.808-6.663,2.733-10.248c-2.075-3.584-6.664-4.81-10.249-2.732c-7.249,4.196-11.752,12.004-11.752,20.374
	C96.193,373.185,106.75,383.741,119.726,383.741z"/>
<path d="M496.484,304.612h-0.516v-49.551c0-17.057-10.872-32.141-27.053-37.534l-22.977-7.659l-40.524-94.555
	c-4.978-11.615-16.36-19.121-28.997-19.121H39.564c-12.976,0-23.532,10.557-23.532,23.532v184.888h-0.516
	C6.96,304.612,0,311.572,0,320.128v16.032c0,8.556,6.96,15.517,15.516,15.517h49.268c-0.43,2.782-0.656,5.631-0.656,8.532
	c0,30.656,24.94,55.597,55.597,55.597s55.597-24.94,55.597-55.597c0-2.901-0.225-5.75-0.656-8.532h9.189c4.142,0,7.5-3.357,7.5-7.5
	s-3.358-7.5-7.5-7.5h-13.776c-8.879-18.923-28.107-32.064-50.355-32.064s-41.476,13.141-50.355,32.064H47.038
	c0.006-0.173,0.026-0.342,0.026-0.517v-16.032c0-8.556-6.96-15.516-15.516-15.516h-0.516v-17.065l345.204-0.001
	c4.142,0,7.5-3.357,7.5-7.5s-3.358-7.5-7.5-7.5l-345.204,0.001V119.725c0-4.705,3.828-8.532,8.532-8.532h336.853
	c6.629,0,12.599,3.937,15.21,10.029l3.015,7.035h-20.69c-2.521,0-4.874,1.267-6.261,3.371s-1.625,4.766-0.632,7.083l32.272,75.303
	c2.448,5.713,8.046,9.404,14.262,9.404h25.561l25.018,8.34c4.934,1.645,9.065,4.745,12,8.725h-19.768c-4.142,0-7.5,3.357-7.5,7.5
	v16.033c0,12.976,10.557,23.532,23.532,23.532h8.532v17.064h-0.516c-8.556,0-15.516,6.96-15.516,15.516v16.032
	c0,0.174,0.02,0.344,0.026,0.517h-6.3c-8.879-18.923-28.107-32.064-50.355-32.064s-41.476,13.141-50.355,32.064H215.919
	c-4.142,0-7.5,3.357-7.5,7.5s3.358,7.5,7.5,7.5h137.446c-0.43,2.782-0.656,5.631-0.656,8.532c0,30.656,24.941,55.597,55.597,55.597
	s55.597-24.94,55.597-55.597c0-2.901-0.225-5.75-0.656-8.532h33.236c8.556,0,15.516-6.961,15.516-15.517v-16.032
	C512,311.572,505.04,304.612,496.484,304.612z M119.726,319.612c22.385,0,40.597,18.212,40.597,40.597s-18.212,40.597-40.597,40.597
	s-40.597-18.212-40.597-40.597S97.34,319.612,119.726,319.612z M32.064,320.128v16.032c0,0.285-0.231,0.517-0.516,0.517h-8.016
	h-8.016c-0.285,0-0.516-0.231-0.516-0.517v-16.032c0-0.284,0.231-0.516,0.516-0.516h16.032
	C31.833,319.612,32.064,319.844,32.064,320.128z M413.118,208.105l-27.792-64.849h14.965c0.258,0,0.513-0.013,0.764-0.039
	l27.943,65.2h-15.405C413.385,208.418,413.199,208.296,413.118,208.105z M472.436,272.548c-4.705,0-8.532-3.827-8.532-8.532v-8.533
	h16.548c0.174,0,0.345-0.014,0.516-0.026v17.092L472.436,272.548L472.436,272.548z M408.307,400.806
	c-22.385,0-40.597-18.212-40.597-40.597s18.212-40.597,40.597-40.597s40.597,18.212,40.597,40.597S430.692,400.806,408.307,400.806z
	 M497,336.16c0,0.285-0.231,0.517-0.516,0.517h-16.032c-0.285,0-0.516-0.231-0.516-0.517v-16.032c0-0.284,0.231-0.516,0.516-0.516
	h16.032c0.285,0,0.516,0.231,0.516,0.516V336.16z"/>
<path d="M336.602,128.257h-64.569c-4.142,0-7.5,3.357-7.5,7.5v56.113c0,17.396,14.152,31.548,31.548,31.548h80.161
	c2.521,0,4.874-1.267,6.261-3.371s1.625-4.766,0.632-7.083l-32.272-75.303C348.415,131.948,342.816,128.257,336.602,128.257z
	 M296.081,208.418c-9.125,0-16.548-7.423-16.548-16.548v-48.613h57.069c0.207,0,0.393,0.123,0.474,0.313l27.792,64.849
	L296.081,208.418L296.081,208.418z"/>
<path d="M424.339,287.548c4.142,0,7.5-3.357,7.5-7.5s-3.358-7.5-7.5-7.5h-16.03c-4.142,0-7.5,3.357-7.5,7.5s3.358,7.5,7.5,7.5
	H424.339z"/>
<path d="M191.871,255.482c4.142,0,7.5-3.357,7.5-7.5v-0.516h6.64c9.599,0,17.409-7.81,17.409-17.408
	c0-6.638-3.688-12.604-9.624-15.57l-54.515-27.258c-0.105-8.513-4.495-16.12-11.523-19.902c-2.775-1.493-4.5-4.376-4.5-7.522
	c0-4.705,3.828-8.532,8.532-8.532s8.532,3.827,8.532,8.532c0,4.143,3.358,7.5,7.5,7.5s7.5-3.357,7.5-7.5
	c0-12.976-10.557-23.532-23.532-23.532s-23.532,10.557-23.532,23.532c0,8.674,4.748,16.618,12.391,20.731
	c2.14,1.151,3.535,3.765,3.624,6.707l-54.488,27.244c-5.937,2.967-9.625,8.934-9.625,15.571c0,9.599,7.81,17.408,17.409,17.408h6.64
	v0.516c0,4.143,3.358,7.5,7.5,7.5s7.5-3.357,7.5-7.5v-0.516h65.162v0.516C184.371,252.125,187.729,255.482,191.871,255.482z
	 M95.161,230.059c0-0.918,0.51-1.743,1.332-2.154l55.298-27.648l55.298,27.649c0.821,0.41,1.331,1.235,1.331,2.153
	c0,1.328-1.081,2.408-2.409,2.408H97.57C96.242,232.467,95.161,231.387,95.161,230.059z"/>
<path d="M424.339,352.709c-4.142,0-7.5,3.357-7.5,7.5c0,4.705-3.828,8.532-8.532,8.532s-8.532-3.827-8.532-8.532
	c0-3.036,1.635-5.869,4.268-7.394c3.585-2.075,4.808-6.663,2.733-10.248c-2.076-3.584-6.664-4.81-10.249-2.732
	c-7.249,4.196-11.752,12.004-11.752,20.374c0,12.976,10.557,23.532,23.532,23.532s23.532-10.557,23.532-23.532
	C431.839,356.066,428.481,352.709,424.339,352.709z"/>
<g>
</g>
<g>
</g>
<g>
</g>
<g>
</g>
<g>
</g>
<g>
</g>
<g>
</g>
<g>
</g>
<g>
</g>
<g>
</g>
<g>
</g>
<g>
</g>
<g>
</g>
<g>
</g>
<g>
</g>
</svg>
