<svg id="Layer_3" height="512" viewBox="0 0 512 512" width="512" xmlns="http://www.w3.org/2000/svg" data-name="Layer 3"><path d="m208 256a56 56 0 0 0 56-56h-112a56 56 0 0 0 56 56z" fill="#087182"/><path d="m328 200h-64a56 56 0 0 1 -112 0h-64l-80 72 48 40 32-24v216h240v-216l32 24 48-40z" fill="#90e3f5"/><circle cx="400" cy="408" fill="#f69038" r="24"/><path d="m225.009 331.636 13.677-25.009 13.678 25.009 25.009 13.678-25.009 13.677-13.678 25.009-13.677-25.009-25.009-13.677z" fill="#fff"/><path d="m35.636 91.636 13.678-25.009 13.677 25.009 25.009 13.678-25.009 13.677-13.677 25.009-13.678-25.009-25.009-13.677z" fill="#90e3f5"/><circle cx="416" cy="96" fill="#f69038" r="48"/><path d="m368 96q0 1.227.062 2.438 1.211.061 2.438.062a48 48 0 0 0 48-48q0-1.227-.062-2.438-1.211-.062-2.438-.062a48 48 0 0 0 -48 48z" fill="#fafcfc" opacity=".3"/><path d="m144 504v-304h-56l-80 72 48 40 32-24v216z" fill="#fafcfc" opacity=".3"/><path d="m368 408a32 32 0 1 0 32-32 32.036 32.036 0 0 0 -32 32zm48 0a16 16 0 1 1 -16-16 16.018 16.018 0 0 1 16 16z"/><path d="m281.212 338.294-22.953-12.553-12.554-22.953a8 8 0 0 0 -14.037 0l-12.554 22.953-22.953 12.553a8 8 0 0 0 0 14.038l22.953 12.553 12.554 22.953a8 8 0 0 0 14.037 0l12.554-22.953 22.953-12.553a8 8 0 0 0 0-14.038zm-32.687 13.678a8 8 0 0 0 -3.18 3.18l-6.659 12.175-6.659-12.175a8 8 0 0 0 -3.18-3.18l-12.175-6.659 12.175-6.658a8 8 0 0 0 3.18-3.18l6.659-12.175 6.659 12.175a8 8 0 0 0 3.18 3.18l12.175 6.658z"/><path d="m6.788 112.333 22.953 12.553 12.554 22.953a8 8 0 0 0 14.037 0l12.554-22.953 22.953-12.553a8 8 0 0 0 0-14.038l-22.953-12.553-12.554-22.953a8 8 0 0 0 -14.037 0l-12.554 22.953-22.953 12.552a8 8 0 0 0 0 14.038zm32.687-13.678a8 8 0 0 0 3.18-3.18l6.658-12.175 6.659 12.175a8 8 0 0 0 3.18 3.18l12.175 6.658-12.175 6.659a8 8 0 0 0 -3.18 3.18l-6.659 12.175-6.659-12.175a8 8 0 0 0 -3.18-3.18l-12.174-6.659z"/><path d="m112 128h16v16h-16z"/><path d="m40 352h16v16h-16z"/><path d="m408 320h16v16h-16z"/><path d="m168 288h16v16h-16z"/><path d="m2.879 278.146 48 40a8 8 0 0 0 9.921.254l19.2-14.4v200a8 8 0 0 0 8 8h240a8 8 0 0 0 8-8v-200l19.2 14.4a8 8 0 0 0 9.921-.254l48-40a8 8 0 0 0 .23-12.092l-80-72-.006.007a7.962 7.962 0 0 0 -5.345-2.061h-61.041l-50.959-43.679v-21.121a40 40 0 1 0 -48-39.2h16a24 24 0 1 1 24 24 8 8 0 0 0 -8 8v28.321l-50.959 43.679h-61.041a7.962 7.962 0 0 0 -5.346 2.06l-.006-.007-80 72a8 8 0 0 0 .23 12.092zm356.859 23.654-23.738-17.8v-66.037l59.783 53.8zm-151.738-139.263 34.374 29.463h-68.748zm47.321 45.463a47.99 47.99 0 0 1 -94.641 0zm-159.321 0h48.518a63.982 63.982 0 0 0 126.965 0h48.517v288h-224zm-16 9.963v66.037l-23.738 17.8-36.045-30.032z"/><path d="m360 96a56 56 0 1 0 56-56 56.063 56.063 0 0 0 -56 56zm56-40a40 40 0 1 1 -40 40 40.046 40.046 0 0 1 40-40z"/><path d="m408 0h16v28.8h-16z"/><path d="m408 163.2h16v28.8h-16z"/><path d="m483.2 88h28.8v16h-28.8z"/><path d="m320 88h28.8v16h-28.8z"/><path d="m459.3 30.3h28.8v16h-28.8z" transform="matrix(.707 -.707 .707 .707 111.665 346.178)"/><path d="m343.9 145.7h28.8v16h-28.8z" transform="matrix(.707 -.707 .707 .707 -3.737 298.379)"/><path d="m465.7 139.3h16v28.8h-16z" transform="matrix(.707 -.707 .707 .707 30.051 379.955)"/><path d="m350.3 23.9h16v28.8h-16z" transform="matrix(.707 -.707 .707 .707 77.859 264.571)"/><path d="m120 400h16v40h-16z"/></svg>